<svg xmlns="http://www.w3.org/2000/svg" xmlns:xlink="http://www.w3.org/1999/xlink" width="500" zoomAndPan="magnify" viewBox="0 0 375 374.999991" height="500" preserveAspectRatio="xMidYMid meet" version="1.0"><defs><g/></defs><g fill="#d11b22" fill-opacity="1"><g transform="translate(63.532025, 205.499987)"><g><path d="M 49.09375 -37.0625 L 42.546875 0 L 33.53125 0 L 37.484375 -22.234375 L 25.234375 0 L 17.953125 0 L 13.515625 -22.328125 L 9.609375 0 L 0.578125 0 L 7.125 -37.0625 L 17.796875 -37.0625 L 23.703125 -11.40625 L 38.484375 -37.0625 Z M 49.09375 -37.0625 "/></g></g></g><g fill="#d11b22" fill-opacity="1"><g transform="translate(111.996022, 205.499987)"><g><path d="M 10.875 -32.515625 C 9.46875 -32.515625 8.347656 -32.894531 7.515625 -33.65625 C 6.691406 -34.414062 6.28125 -35.375 6.28125 -36.53125 C 6.28125 -38.113281 6.894531 -39.46875 8.125 -40.59375 C 9.363281 -41.726562 10.863281 -42.296875 12.625 -42.296875 C 14.03125 -42.296875 15.132812 -41.914062 15.9375 -41.15625 C 16.75 -40.394531 17.15625 -39.414062 17.15625 -38.21875 C 17.15625 -36.675781 16.539062 -35.335938 15.3125 -34.203125 C 14.082031 -33.078125 12.601562 -32.515625 10.875 -32.515625 Z M 14.78125 -29.453125 L 9.609375 0 L 0.578125 0 L 5.75 -29.453125 Z M 14.78125 -29.453125 "/></g></g></g><g fill="#d11b22" fill-opacity="1"><g transform="translate(127.569966, 205.499987)"><g><path d="M 1.421875 -14.78125 C 1.953125 -17.8125 2.988281 -20.46875 4.53125 -22.75 C 6.082031 -25.039062 7.945312 -26.800781 10.125 -28.03125 C 12.3125 -29.269531 14.617188 -29.890625 17.046875 -29.890625 C 18.984375 -29.890625 20.679688 -29.484375 22.140625 -28.671875 C 23.609375 -27.859375 24.675781 -26.765625 25.34375 -25.390625 L 27.765625 -39.0625 L 36.796875 -39.0625 L 29.890625 0 L 20.859375 0 L 21.59375 -4.21875 C 20.46875 -2.8125 19.054688 -1.6875 17.359375 -0.84375 C 15.671875 0 13.789062 0.421875 11.71875 0.421875 C 9.644531 0.421875 7.804688 -0.0507812 6.203125 -1 C 4.597656 -1.945312 3.347656 -3.300781 2.453125 -5.0625 C 1.554688 -6.820312 1.109375 -8.882812 1.109375 -11.25 C 1.109375 -12.332031 1.210938 -13.507812 1.421875 -14.78125 Z M 23.5 -14.734375 C 23.601562 -15.367188 23.65625 -15.945312 23.65625 -16.46875 C 23.65625 -18.195312 23.148438 -19.550781 22.140625 -20.53125 C 21.140625 -21.519531 19.867188 -22.015625 18.328125 -22.015625 C 16.523438 -22.015625 14.882812 -21.367188 13.40625 -20.078125 C 11.925781 -18.796875 10.992188 -17.03125 10.609375 -14.78125 C 10.503906 -14.144531 10.453125 -13.566406 10.453125 -13.046875 C 10.453125 -11.316406 10.953125 -9.945312 11.953125 -8.9375 C 12.960938 -7.9375 14.222656 -7.4375 15.734375 -7.4375 C 17.523438 -7.4375 19.160156 -8.085938 20.640625 -9.390625 C 22.117188 -10.691406 23.070312 -12.472656 23.5 -14.734375 Z M 23.5 -14.734375 "/></g></g></g><g fill="#d11b22" fill-opacity="1"><g transform="translate(163.416429, 205.499987)"><g><path d="M 10.875 -32.515625 C 9.46875 -32.515625 8.347656 -32.894531 7.515625 -33.65625 C 6.691406 -34.414062 6.28125 -35.375 6.28125 -36.53125 C 6.28125 -38.113281 6.894531 -39.46875 8.125 -40.59375 C 9.363281 -41.726562 10.863281 -42.296875 12.625 -42.296875 C 14.03125 -42.296875 15.132812 -41.914062 15.9375 -41.15625 C 16.75 -40.394531 17.15625 -39.414062 17.15625 -38.21875 C 17.15625 -36.675781 16.539062 -35.335938 15.3125 -34.203125 C 14.082031 -33.078125 12.601562 -32.515625 10.875 -32.515625 Z M 14.78125 -29.453125 L 9.609375 0 L 0.578125 0 L 5.75 -29.453125 Z M 14.78125 -29.453125 "/></g></g></g><g fill="#315d9f" fill-opacity="1"><g transform="translate(178.996861, 205.499987)"><g><path d="M 10.828125 -6.859375 L 22.65625 -6.859375 L 21.4375 0 L 0.578125 0 L 7.125 -37.0625 L 16.15625 -37.0625 Z M 10.828125 -6.859375 "/></g></g></g><g fill="#315d9f" fill-opacity="1"><g transform="translate(204.179137, 205.499987)"><g><path d="M 1.421875 -14.78125 C 1.953125 -17.8125 2.988281 -20.46875 4.53125 -22.75 C 6.082031 -25.039062 7.945312 -26.800781 10.125 -28.03125 C 12.3125 -29.269531 14.617188 -29.890625 17.046875 -29.890625 C 19.128906 -29.890625 20.875 -29.460938 22.28125 -28.609375 C 23.6875 -27.765625 24.707031 -26.660156 25.34375 -25.296875 L 26.078125 -29.453125 L 35.109375 -29.453125 L 29.890625 0 L 20.859375 0 L 21.640625 -4.171875 C 20.515625 -2.796875 19.085938 -1.6875 17.359375 -0.84375 C 15.640625 0 13.742188 0.421875 11.671875 0.421875 C 9.585938 0.421875 7.742188 -0.0507812 6.140625 -1 C 4.546875 -1.945312 3.304688 -3.289062 2.421875 -5.03125 C 1.546875 -6.78125 1.109375 -8.832031 1.109375 -11.1875 C 1.109375 -12.3125 1.210938 -13.507812 1.421875 -14.78125 Z M 23.5 -14.734375 C 23.601562 -15.367188 23.65625 -15.945312 23.65625 -16.46875 C 23.65625 -18.195312 23.148438 -19.550781 22.140625 -20.53125 C 21.140625 -21.519531 19.867188 -22.015625 18.328125 -22.015625 C 16.523438 -22.015625 14.882812 -21.367188 13.40625 -20.078125 C 11.925781 -18.796875 10.992188 -17.03125 10.609375 -14.78125 C 10.503906 -14.144531 10.453125 -13.566406 10.453125 -13.046875 C 10.453125 -11.316406 10.953125 -9.945312 11.953125 -8.9375 C 12.960938 -7.9375 14.222656 -7.4375 15.734375 -7.4375 C 17.523438 -7.4375 19.160156 -8.085938 20.640625 -9.390625 C 22.117188 -10.691406 23.070312 -12.472656 23.5 -14.734375 Z M 23.5 -14.734375 "/></g></g></g><g fill="#315d9f" fill-opacity="1"><g transform="translate(240.0256, 205.499987)"><g><path d="M 23.765625 -29.78125 C 26.710938 -29.78125 29.03125 -28.953125 30.71875 -27.296875 C 32.414062 -25.640625 33.265625 -23.332031 33.265625 -20.375 C 33.265625 -19.394531 33.15625 -18.34375 32.9375 -17.21875 L 29.890625 0 L 20.90625 0 L 23.765625 -16 C 23.867188 -16.59375 23.921875 -17.117188 23.921875 -17.578125 C 23.921875 -19.054688 23.503906 -20.203125 22.671875 -21.015625 C 21.847656 -21.828125 20.695312 -22.234375 19.21875 -22.234375 C 17.457031 -22.234375 15.976562 -21.6875 14.78125 -20.59375 C 13.582031 -19.5 12.804688 -17.96875 12.453125 -16 L 12.453125 -16.265625 L 9.609375 0 L 0.578125 0 L 5.75 -29.453125 L 14.78125 -29.453125 L 14.09375 -25.5 C 15.257812 -26.800781 16.675781 -27.835938 18.34375 -28.609375 C 20.019531 -29.390625 21.828125 -29.78125 23.765625 -29.78125 Z M 23.765625 -29.78125 "/></g></g></g><g fill="#315d9f" fill-opacity="1"><g transform="translate(275.608095, 205.499987)"><g><path d="M 1.421875 -14.78125 C 1.953125 -17.8125 2.988281 -20.46875 4.53125 -22.75 C 6.082031 -25.039062 7.945312 -26.800781 10.125 -28.03125 C 12.3125 -29.269531 14.617188 -29.890625 17.046875 -29.890625 C 18.984375 -29.890625 20.679688 -29.484375 22.140625 -28.671875 C 23.609375 -27.859375 24.675781 -26.765625 25.34375 -25.390625 L 27.765625 -39.0625 L 36.796875 -39.0625 L 29.890625 0 L 20.859375 0 L 21.59375 -4.21875 C 20.46875 -2.8125 19.054688 -1.6875 17.359375 -0.84375 C 15.671875 0 13.789062 0.421875 11.71875 0.421875 C 9.644531 0.421875 7.804688 -0.0507812 6.203125 -1 C 4.597656 -1.945312 3.347656 -3.300781 2.453125 -5.0625 C 1.554688 -6.820312 1.109375 -8.882812 1.109375 -11.25 C 1.109375 -12.332031 1.210938 -13.507812 1.421875 -14.78125 Z M 23.5 -14.734375 C 23.601562 -15.367188 23.65625 -15.945312 23.65625 -16.46875 C 23.65625 -18.195312 23.148438 -19.550781 22.140625 -20.53125 C 21.140625 -21.519531 19.867188 -22.015625 18.328125 -22.015625 C 16.523438 -22.015625 14.882812 -21.367188 13.40625 -20.078125 C 11.925781 -18.796875 10.992188 -17.03125 10.609375 -14.78125 C 10.503906 -14.144531 10.453125 -13.566406 10.453125 -13.046875 C 10.453125 -11.316406 10.953125 -9.945312 11.953125 -8.9375 C 12.960938 -7.9375 14.222656 -7.4375 15.734375 -7.4375 C 17.523438 -7.4375 19.160156 -8.085938 20.640625 -9.390625 C 22.117188 -10.691406 23.070312 -12.472656 23.5 -14.734375 Z M 23.5 -14.734375 "/></g></g></g></svg>